<svg width="576" height="756" viewBox="0 0 576 756" fill="none" xmlns="http://www.w3.org/2000/svg">
<path fill-rule="evenodd" clip-rule="evenodd" d="M563.327 418.425C556.29 419.116 549.252 419.806 542.215 420.498C508.513 423.074 474.824 428.456 441.379 431.685C440.546 430.329 438.916 430.553 437.927 431.495C434.59 431.203 430.849 428.65 427.826 431.305C427.728 431.291 427.63 431.275 427.531 431.266C422.148 420.928 418.428 409.901 414.817 398.86C412.512 392.072 409.411 385.501 403.681 380.943C393.901 374.15 371.494 360.375 360.011 360.954C359.82 358.896 358.862 356.776 357.288 355.406C360.757 349.488 346.888 345.628 345.91 346.314C346.537 326.544 337.244 309.376 316.753 305.439C298.395 301.611 272.285 300.968 262.411 320.166C261.326 320.043 250.232 319.986 249.159 320.106C247.49 317.991 229.163 338.034 236.674 345.011C169.517 374.739 131.332 371.192 112.744 454.766C110.231 462.617 110.048 471.208 107.394 478.884C97.9536 500.943 90.2964 524.432 88.3907 548.435C83.7881 549.615 83.2588 557.736 88.59 558.91C90.6264 559.36 92.3293 559.973 93.8142 561.136C92.6534 580.806 97.4075 625.739 100.403 625.601C106.511 645.052 133.754 650.542 153.042 643.706C149.717 649.966 153.042 653.901 153.042 657.246C222.443 659.873 298.326 658.36 367.709 661.964C376.584 661.837 385.919 664.145 394.673 662.817C400.011 661.536 400.02 653.136 394.605 652.098L418.267 646.955C417.738 646.755 428.02 639.911 435.791 627.122C443.024 612.816 438.101 595.547 441.379 579.985C466.978 577.89 493 576.995 518.319 572.656C521.771 582.992 536.715 570.631 541.465 565.659C541.459 565.651 541.453 565.643 541.447 565.635C543.746 565.006 545.59 562.85 545.651 560.298C547.263 557.993 547.602 554.744 546.056 552.516C553.142 511.6 563.944 469.825 567.849 428.524C569.229 428.219 570.529 427.613 571.631 426.68L571.542 426.591C573.409 424.508 573.772 420.912 570.659 419.142C568.148 417.713 566.052 418.156 563.327 418.425Z" fill="white"/>
<path fill-rule="evenodd" clip-rule="evenodd" d="M263.691 315.707C265.782 310.448 272.85 312.493 272.062 318.017C271.591 321.326 269.78 324.821 268.153 327.721C266.828 330.082 265.317 332.386 263.269 334.155C266.915 337.56 270.701 340.84 274.582 343.955C278.817 347.353 283.271 350.486 287.874 353.365C291.911 355.89 296.13 358.127 299.935 361.008C303.473 363.686 306.696 366.907 308.336 371.112C310.083 375.59 309.324 380.215 308.037 384.69L307.889 385.196C306.575 389.629 304.3 394.973 307.455 399.15C309.061 401.277 311.396 402.783 313.412 404.483C315.204 405.994 316.886 407.637 318.428 409.402C321.792 413.25 324.527 417.579 326.254 422.403L326.408 422.841C327.888 427.112 328.969 432.343 326.97 436.536C326.396 437.738 324.546 437.347 324.225 436.177C323.498 433.526 323.536 430.749 322.927 428.06C322.293 425.264 321.239 422.61 319.861 420.099C317.196 415.241 313.587 411.091 309.323 407.583L308.046 406.545C304.72 403.813 301.663 400.914 300.988 396.393C300.266 391.556 302.202 386.948 303.448 382.37C304.316 379.179 304.599 376.12 303.661 373.237C302.515 375.108 300.952 376.885 299.716 378.469C297.253 381.626 294.767 384.763 292.288 387.907C289.746 391.13 287.267 394.404 284.906 397.763C283.849 399.265 282.805 400.777 281.763 402.29C280.98 403.427 279.888 404.563 279.035 405.723C279.242 406.344 279.226 407.059 278.85 407.567C274.324 413.687 267.884 400.917 266.205 397.691C262.785 391.12 260.239 384.14 256.808 377.572C253.252 370.762 249.203 364.134 244.69 357.918C241.961 354.157 238.901 350.625 236.404 346.746C230.522 352.084 222.78 355.662 215.67 358.907C207.858 362.472 199.742 365.384 191.732 368.476L189.366 369.396C175.565 374.786 161.426 380.707 149.955 390.281C136.475 401.531 128.5 417.211 122.563 433.449C115.729 452.141 110.075 471.339 104.804 490.524C102.107 500.34 99.5478 510.201 97.1419 520.093C95.0218 528.808 93.2645 537.609 90.8103 546.235C95.7877 546.059 101.464 547.987 105.714 548.544C125.081 551.08 144.187 555.124 162.472 562.125C164.731 562.99 165.384 565.248 164.893 567.077C166.195 566.709 167.497 566.336 168.799 565.97C167.372 563.782 168.053 559.871 168.165 557.445L168.172 557.279C168.288 554.047 168.638 550.812 168.865 547.586C169.298 541.437 169.861 535.333 170.61 529.219L170.801 527.691C171.649 521.039 172.277 514.348 173.203 507.708L173.312 506.948C172.868 505.249 172.351 503.571 171.809 501.9C170.363 497.45 168.322 493.26 166.534 488.95C166.323 488.442 167.045 488.151 167.383 488.455C170.412 491.182 172.817 494.641 174.75 498.258C174.784 498.088 174.813 497.917 174.848 497.746L175.069 496.66C175.613 494.011 176.274 491.223 177.898 489.074C178.071 488.846 178.413 488.798 178.577 489.074C180.131 491.706 180.305 495.04 180.544 498.035C180.815 501.422 180.849 504.853 180.801 508.251C180.708 514.89 180.24 521.548 179.868 528.176C179.502 534.69 178.784 541.121 177.859 547.571L177.684 548.78C177.231 551.85 176.861 554.958 176.265 558.007L176.096 558.837C175.777 560.349 175.581 562.481 174.946 564.252C191.277 559.694 207.633 555.24 224.02 550.864C235.864 547.701 247.72 544.585 259.571 541.45C260.197 540.322 260.975 539.268 261.947 538.327C265.149 535.224 269.392 533.84 273.284 536.228C273.6 536.423 273.627 536.919 273.284 537.107C272.538 537.515 271.791 537.933 271.057 538.369L278.174 536.44C283.493 534.998 288.875 533.195 294.319 532.19C304.347 527.238 315.131 523.654 325.694 520.111L326.939 519.69C332.348 517.845 337.942 515.779 343.53 514.756C347.621 514.008 352.423 514.911 354.068 519.105C356.15 520.478 358.11 522.092 360.001 523.68C361.368 524.827 362.678 526.047 364.011 527.234L364.256 527.45C365.346 528.396 366.209 529.029 366.476 530.535C366.614 531.312 366.12 532.364 365.162 532.261C362.229 531.947 359.844 528.545 357.855 526.514C356.319 524.943 354.77 523.32 353.367 521.594C352.55 522.04 351.429 521.96 350.909 520.973C348.21 515.86 340.817 519.403 336.727 520.616L330.867 522.351C327.938 523.22 325.009 524.094 322.086 524.982C314.051 527.424 306.056 530.156 297.948 532.399C298.673 533.197 298.573 534.616 297.195 535.156C290.849 537.648 283.886 538.936 277.293 540.646C273.13 541.727 268.97 542.814 264.811 543.907C264.098 545.063 263.585 546.371 263.369 547.893C262.575 553.491 264.106 559.949 265.597 565.363L265.822 566.171C267.047 570.523 268.851 575.859 272.603 578.607C273.52 579.278 274.686 579.744 275.862 579.85C283.208 576.066 290.554 572.282 297.905 568.506C299.266 567.806 300.524 568.753 300.83 569.88C303.422 569.454 306.007 568.783 308.363 567.984C312.32 566.639 315.41 564.074 319.12 562.3C326.298 558.869 333.629 563.084 340.056 566.288L341.537 567.016C344.419 568.416 350.415 571.104 351.798 567.277C353.136 563.574 348.907 559.617 346.176 557.951C342.92 555.964 339.129 554.901 335.45 554.015C333.349 553.509 331.223 553.096 329.083 552.795C326.657 552.453 324.15 552.505 321.814 551.717C320.653 551.326 320.474 549.481 321.814 549.176C325.41 548.357 329.703 549.251 333.456 550.164L335.418 550.647C339.199 551.576 343.017 552.741 346.461 554.594C348.966 555.941 351.609 557.987 353.336 560.493C354.836 559.099 356.702 559.146 358.646 559.663L359.702 559.956C361.444 560.44 362.857 560.772 364.552 560.437C364.779 559.203 365.009 557.968 365.254 556.733C367.671 544.595 370.321 532.503 373.244 520.475C378.288 499.73 384.124 479.212 390.703 458.904L391.363 456.874C392.881 452.229 394.102 447.168 396.548 442.901C398.862 438.866 402.569 436.542 406.973 435.311C411.971 433.914 417.223 433.183 422.322 432.24C423.459 432.03 424.6 431.83 425.738 431.623C424.776 429.885 424.058 427.912 423.411 426.398L423.298 426.136C421.908 422.965 420.66 419.738 419.454 416.493L418.553 414.054C416.376 408.18 414.129 402.403 411.069 396.909C407.848 391.127 403.575 386.401 398.248 382.488C387.388 374.511 374.297 370.442 363.763 361.917C363.331 361.568 363.885 360.971 364.323 361.192C371.436 364.768 379.114 367.2 386.512 370.111L387.972 370.687C393.819 373.007 399.758 375.532 404.819 379.288C410.462 383.476 414.906 388.676 418.246 394.861C421.538 400.957 423.644 407.781 425.967 414.293L426.588 416.028C427.525 418.629 428.492 421.223 429.601 423.755C430.481 425.765 432.124 428.06 432.871 430.356C434.913 430.001 436.955 429.646 439 429.304C483.288 421.905 528.07 417.557 572.952 416.285C574.708 416.236 575.617 417.912 575.358 419.445C571.051 444.932 567.223 470.505 563.023 496.011C561.19 507.143 559.32 518.267 557.407 529.385C556.437 535.017 555.317 540.628 554.398 546.27C553.657 550.825 553.119 555.417 551.847 559.867C550.705 563.857 548.954 567.704 546.077 570.749C542.977 574.03 538.649 575.618 534.292 576.369C523.233 578.274 511.889 579.051 500.74 580.32L441.382 587.078C442.25 594.968 442.315 602.735 441.917 610.716L441.69 615.073C441.504 618.578 441.283 622.088 440.78 625.556C440.149 629.907 438.16 633.592 435.23 636.842C432.54 639.826 429.271 642.373 426.092 644.813C422.792 647.347 419.383 649.792 415.503 651.359L414.999 651.559C411.595 652.889 405.21 654.948 400.558 654.196C401.166 657.245 402.343 660.523 401.299 663.54C400.815 664.941 398.985 665.64 397.863 664.448C395.641 662.086 395.467 658.965 394.941 655.883C394.394 652.675 393.921 649.456 393.502 646.23C392.691 639.991 392.06 633.695 391.867 627.403C391.669 620.942 391.745 614.472 392.093 608.018C392.272 604.703 392.494 601.391 392.914 598.097C393.094 596.693 393.277 595.287 393.486 593.886C393.563 593.375 393.647 592.867 393.739 592.359L388.411 592.961C380.242 593.874 372.069 594.698 363.842 594.826C362.867 594.841 362.118 594.397 361.628 593.75C361.106 594.601 360.197 595.209 358.896 595.204C347.407 595.162 336.708 591.402 326.258 586.972C320.991 584.738 315.805 582.319 310.53 580.105C305.607 578.037 300.343 576.562 295.538 574.234L282.912 580.861C282.819 581.187 282.701 581.495 282.575 581.753C281.753 583.432 280.132 584.343 278.476 585.029C276.887 585.689 275.242 585.894 273.639 585.727C264.063 590.748 254.486 595.765 244.902 600.77L235.315 605.77C216.216 615.722 197.192 625.836 177.972 635.554L176.557 636.266C169.918 639.597 162.79 642.974 155.423 645.494C155.292 647.36 155.374 649.174 155.531 651.149L155.568 651.58C155.788 653.914 156.259 656.838 154.388 658.5C153.414 659.364 151.676 659.367 151.014 658.064C149.813 655.702 150.891 651.977 151.272 649.41C151.407 648.497 151.571 647.559 151.815 646.648C143.369 649.165 134.667 650.385 126.073 648.972C117.705 647.597 111.224 642.322 105.999 635.87C100.485 629.061 96.5663 621.125 94.464 612.619C92.0714 602.94 91.9151 592.943 91.9713 583.029C92.031 572.471 92.4213 561.861 93.7045 551.374C92.2986 551.043 90.7393 550.757 89.3185 550.855C88.6148 551.982 87.2497 552.457 86.0162 552.31C83.3338 555.271 90.1376 558.296 92.3119 559.054C93.0668 559.317 92.986 560.544 92.1152 560.507L91.5667 560.481C88.207 560.302 84.736 559.728 82.7606 556.604C81.1777 554.099 81.6533 551.133 83.5403 549.09C84.7866 537.298 87.7661 525.815 90.5392 514.312C93.2605 503.021 96.2869 491.803 99.4946 480.642L100.933 475.646C105.983 458.145 111.262 440.502 118.229 423.697C121.708 415.305 125.715 407.068 131.148 399.751C136.211 392.93 142.19 387.094 149.061 382.109C161.872 372.815 176.904 367.2 191.674 361.85L192.335 361.61C199.989 358.84 207.624 356.036 215.191 353.034C221.883 350.38 228.294 347.014 234.954 344.319C234.738 343.926 234.529 343.529 234.328 343.127L234.204 343.231C234.183 343.247 234.162 343.264 234.139 343.279C233.47 343.743 232.483 343.515 231.931 342.994C230.373 341.522 230.901 339.889 231.941 338.363L232.076 338.168C233.349 336.385 234.484 334.499 235.658 332.651L236.394 331.495C238.365 328.407 240.436 325.298 243.065 322.746C244.282 321.564 245.614 320.679 247.026 320.019C246.906 319.764 247.964 319.242 248.264 319.505C252.738 317.866 257.884 318.21 262.761 318.661M438.51 587.404L432.291 588.112C425.449 588.891 418.604 589.644 411.758 590.39L396.889 592.007C396.851 592.856 396.748 593.685 396.729 594.326C396.632 597.628 396.56 600.932 396.491 604.236C396.354 610.858 396.504 617.487 396.94 624.096C397.362 630.5 397.918 636.905 398.783 643.266L398.96 644.537L399.062 645.206C399.767 645.274 400.46 645.609 401.036 646.298C402.294 647.801 406.848 646.34 408.627 645.707C411.551 644.666 414.306 642.906 416.847 641.141C419.329 639.419 421.564 637.41 423.712 635.293L425.469 633.554C427.217 631.816 428.966 629.964 430.037 627.778C431.49 624.813 431.677 621.174 432.103 617.945C432.628 613.973 433.252 610.001 433.912 606.049M257.965 545.712L257.32 545.882C233.886 552.113 210.488 558.528 186.982 564.484C175.349 567.432 163.662 570.165 152.015 573.057L150.13 573.529C140.942 575.852 131.643 578.649 124.607 585.318C124.348 585.563 123.971 585.186 124.215 584.925C131.798 576.847 142.583 573.428 152.938 570.464C154.852 569.916 156.768 569.381 158.683 568.836C144.6 563.812 130.295 559.441 115.66 556.324C111.892 555.521 108.079 554.932 104.314 554.126C101.688 553.564 99.1229 552.751 96.5245 552.077L94.4806 551.562L94.4535 558.026C94.4195 567.182 94.4357 576.329 94.9025 585.483L94.9909 587.179C95.5354 597.366 96.3855 607.765 99.9982 617.371C102.934 625.176 107.613 632.53 113.732 638.215C116.829 641.092 120.158 643.331 124.273 644.437C128.094 645.463 132.097 645.583 136.024 645.31C154.864 643.994 171.635 633.753 188 625.274C214.768 611.405 241.539 597.543 268.335 583.727C267.61 583.232 266.928 582.661 266.308 582.019C262.715 578.306 260.819 573.222 259.574 568.299C258.249 563.059 257.457 557.442 257.365 552.033M292.06 589.081C292.296 588.954 292.57 589.113 292.581 589.38C292.664 591.428 291.533 593.448 290.688 595.293L290.599 595.49C289.572 597.775 288.448 600.03 287.285 602.249C284.962 606.683 282.547 611.07 280.027 615.394C274.959 624.094 269.327 632.427 262.67 640.002C261.166 641.713 258.693 639.519 259.658 637.677C264.31 628.795 269.734 620.409 275.316 612.096C278.111 607.934 280.904 603.768 283.726 599.624C284.904 597.895 286.096 596.173 287.321 594.476L288.06 593.461M569.985 421.372C546.469 422.083 522.981 423.618 499.577 426.023C477.812 428.259 456.126 431.236 434.562 434.948C430.058 435.723 425.56 436.53 421.067 437.368L418.372 437.876C413.879 438.728 408.389 439.079 404.389 441.481C400.171 444.014 399.031 449.306 397.627 453.671C395.977 458.803 394.369 463.951 392.805 469.111C386.591 489.598 380.915 510.262 375.852 531.063C373.339 541.388 371.109 551.771 368.759 562.134C366.672 571.341 364.368 580.444 361.962 589.559C362.259 589.328 362.622 589.153 363.061 589.059C375.011 586.515 387.209 585.409 399.337 584.003L400.511 583.866C413.057 582.39 425.604 580.924 438.158 579.512L521.275 570.158C526.177 569.607 531.429 569.532 536.199 568.216C544.31 565.977 546.211 556.903 547.572 549.677L547.613 549.458C551.715 527.625 554.981 505.602 558.808 483.713M363.896 564.178C360.669 563.965 356.253 561.008 353.804 561.22C355.09 563.378 355.67 565.839 354.929 568.468C352.867 575.782 343.545 571.998 339.054 569.763C335.373 567.93 331.817 565.687 327.741 564.829C323.124 563.857 319.995 565.695 316.094 567.813C312.89 569.552 309.4 570.801 305.812 571.448C303.903 571.792 302.091 571.829 300.282 571.694C300.173 571.783 300.05 571.866 299.91 571.939L298.953 572.442C303.281 572.64 307.688 573.976 311.716 575.2C315.889 576.467 319.985 577.995 324.06 579.557L328.069 581.099C337.958 584.888 348.194 588.487 358.896 588.455C359.665 588.453 360.295 588.666 360.791 589.014M345.842 541.26C349.03 540.87 351.972 541.288 354.52 543.364C357.592 545.869 359.656 550.022 364.072 550.295C365.36 550.374 365.659 552.186 364.379 552.565C361.092 553.539 358.43 551.759 356.19 549.448L354.684 547.873C352.471 545.58 350.429 543.807 346.673 543.944C342.651 544.091 338.622 545.021 334.626 545.494C330.099 546.029 325.573 546.486 321.031 546.88C320.82 546.898 320.784 546.566 320.982 546.517L326.068 545.25M342.764 528.218L343.29 528.165C347.92 527.715 352.153 527.698 356.288 530.19L357.081 530.67C360.808 532.937 364.866 535.608 367.197 539.279C367.578 539.88 366.948 540.586 366.31 540.434C361.829 539.358 358.554 536.068 354.787 533.606C350.558 530.844 346.19 531.299 341.369 531.728C336.701 532.144 332.036 532.715 327.414 533.494C323.071 534.225 318.714 535.379 314.327 535.747L314.328 535.738C313.826 535.737 313.541 534.984 314.052 534.728C318.504 532.504 323.66 531.451 328.503 530.434M483.396 482.431C482.949 480.29 485.581 479.296 486.801 480.995L487.061 481.354C489.697 484.968 493.51 489.502 493.316 494.099C495.633 494.15 498.035 495.558 498.938 497.651C499.355 498.619 499.497 499.766 499.405 500.954C501.511 501.117 503.808 502.501 505.096 503.848C507.23 506.082 507.399 509.238 505.867 511.848C502.529 517.537 495.236 519.606 489.079 520.068L488.859 520.084C482.5 520.524 473.337 520.405 468.976 514.945C464.77 509.679 469.419 505.415 474.186 503.1C472.945 501.966 472.302 500.34 472.907 498.625C473.968 495.612 477.714 494.447 479.83 492.352C482.41 489.798 484.116 486.294 483.436 482.631M486.891 487.062C486.19 490.112 484.467 492.901 482.068 495.112C481.15 495.957 480.146 496.709 479.08 497.356L478.951 497.43C478.005 497.962 475.679 498.958 475.858 500.151C476.042 501.377 479.832 503.296 480.865 503.297C481.1 503.297 481.233 503.664 480.993 503.771C479.121 504.598 477.486 504.953 475.655 504.079C474.432 505.328 473.244 506.621 472.067 507.903C469.986 510.171 470.698 512.566 473.157 514.254C477.108 516.968 483.115 516.902 487.725 516.704C492.365 516.506 497.326 515.47 500.95 512.377L501.108 512.24C503.078 510.487 504.877 507.516 501.86 505.827C500.679 505.166 499.403 505.205 498.281 504.883C497.231 506.942 495.529 508.591 493.451 508.909C491.772 509.167 490.616 507.055 492.143 506.044L492.486 505.831C494.404 504.606 496.041 502.719 495.997 500.262C495.968 498.556 493.587 496.402 492.037 498.005L491.966 498.081C490.668 499.545 488.382 497.701 489.236 496.079L489.277 496.005M184.245 402.251C184.239 401.884 184.754 401.747 184.934 402.064C187.946 407.367 189.52 413.867 191.125 419.71C192.805 425.83 194.162 432.012 195.381 438.239C197.849 450.85 199.165 463.388 199.254 476.24C199.266 478.075 196.279 478.563 195.986 476.683C194.046 464.181 192.187 451.666 190.232 439.168C189.249 432.882 188.104 426.62 187.008 420.352M214.064 411.487C213.842 410.756 214.906 410.511 215.178 411.18C221.223 426.028 223.27 442.855 219.389 458.52C218.795 460.917 215.288 459.879 215.736 457.512M292.036 398.294C292.005 397.746 292.715 397.66 292.983 398.037C295.847 402.075 297.035 407.483 302.06 409.57C304.569 410.612 307.393 410.431 309.609 412.191C311.091 413.368 312.228 415.226 311.115 417.009C310.757 417.585 309.752 417.874 309.265 417.248C308.555 416.336 308.179 415.244 307.213 414.561C305.852 413.596 304.015 413.537 302.454 413.084C300.435 412.498 298.655 411.472 297.197 409.949M339.887 330.937C340.182 330.787 340.466 330.883 340.654 331.138C340.924 331.502 340.891 331.856 340.561 332.106C341.002 333.008 341.523 335.267 341.597 335.596C341.899 336.93 342.219 338.255 342.555 339.58C343.232 342.251 343.826 344.944 344.503 347.616C345.222 350.449 346.078 353.251 347.03 356.013C347.092 356.192 347.159 356.375 347.23 356.56L347.339 356.84L347.365 356.797C347.559 356.491 347.962 356.705 347.914 357.029C347.87 357.324 347.81 357.617 347.76 357.912L347.86 358.176C348.483 359.854 348.91 361.622 347.767 363.103C347.339 363.657 346.868 363.985 346.282 364.082C345.341 367.184 344.162 370.228 342.899 373.152L342.528 374.006C340.67 378.271 338.689 382.481 335.731 386.113C332.501 390.078 328.058 392.785 325.244 397.13C323.936 399.151 323.025 401.276 322.286 403.558L322.008 404.424C321.483 406.039 320.877 407.603 319.364 408.55C318.881 408.852 318.158 408.756 317.768 408.344C314.665 405.059 317.914 398.925 319.785 395.745C322.386 391.322 326.151 388.493 329.92 385.157C333.984 381.56 336.575 376.749 339.082 372.009C340.618 369.105 342.1 366.139 343.661 363.223C342.03 361.781 341.508 358.916 340.956 356.925L340.906 356.746C339.992 353.557 339.267 350.286 338.809 347C338.368 343.841 338.184 340.727 338.3 337.549L338.334 336.74M345.95 345.974C345.59 345.48 346.186 344.92 346.68 345.023C349.685 345.645 352.624 347.466 355.321 348.937L355.609 349.094C357.762 350.256 359.928 351.679 361.059 353.936C362.289 356.389 362.187 359.215 362.02 361.881L362.004 362.13C361.798 365.327 361.765 368.649 361.089 371.789C360.743 373.395 359.289 373.848 358.045 373.468C356.566 378.143 352.41 381.587 349.374 385.276C345.504 389.978 346.232 396.328 346.637 401.992C346.8 404.285 343.95 404.937 342.482 403.713L339.099 400.901C338.535 400.432 337.972 399.961 337.411 399.489C336.931 399.085 336.454 398.677 335.982 398.264L335.276 397.641C334.963 397.36 333.583 395.817 333.179 395.753C332.202 395.598 329.879 398.176 329.084 398.985L328.984 399.085C327.487 400.554 326.136 402.133 324.877 403.808C324.645 404.116 324.192 403.861 324.358 403.505C325.486 401.087 326.798 398.774 328.355 396.61L328.67 396.179C329.707 394.782 331.098 392.314 332.927 391.901C335.161 391.398 337.391 393.639 339.016 394.883L339.119 394.961C339.893 395.542 340.657 396.132 341.42 396.727C341.34 392.51 341.872 388.249 344.048 384.615C345.582 382.053 347.881 380.154 349.847 377.952C352.037 375.5 353.18 372.485 355.162 369.931C355.418 369.603 355.77 369.426 356.151 369.37C356.227 367.316 356.529 365.243 356.762 363.212L356.83 362.604C357.066 360.397 357.624 357.701 356.544 355.634C355.524 353.682 353.184 352.304 351.451 350.98L350.036 349.882M248.415 322.639C247.51 323.163 246.664 323.814 245.897 324.628C243.482 327.192 241.755 330.383 240.074 333.452C239.17 335.105 238.297 336.777 237.385 338.426C236.988 339.143 236.58 339.853 236.168 340.562C235.977 340.888 235.41 341.537 235.129 341.937C235.442 342.375 235.764 342.806 236.093 343.232C236.219 343.394 244.883 352.839 247.903 356.535C252.528 362.197 256.661 368.178 260.195 374.579C263.656 380.847 266.291 387.484 269.496 393.874C271.101 397.073 272.893 400.249 275.177 403.018C275.265 403.126 275.358 403.228 275.449 403.334C276.32 400.978 278.554 398.454 279.651 397.005L279.754 396.869C282.242 393.512 284.87 390.257 287.554 387.057C290.007 384.135 292.521 381.276 295.097 378.464L296.065 377.412C297.86 375.472 300.139 372.57 302.766 371.184C302.484 370.682 302.159 370.186 301.784 369.696C299.323 366.477 295.844 364.142 292.411 362.034L290.185 360.679C281.793 355.562 273.532 350.207 266.247 343.559C262.393 340.04 258.592 336.355 255.352 332.252L254.206 330.801M262.416 320.106C258.487 320.436 254.243 320.357 250.612 321.639C253.84 324.693 256.909 327.99 260.061 331.096C260.342 328.995 260.915 326.921 261.401 324.873" fill="black"/>
<path fill-rule="evenodd" clip-rule="evenodd" d="M383.178 238.686C382.117 229.358 383.49 209.861 383.582 208.677C384.163 201.188 380.657 171.617 374.028 174.342C362.91 165.534 348.1 163.589 334.252 162.66C305.488 160.73 274.888 165.16 252.676 184.531C241.692 194.591 230.998 209.223 231.858 224.457C221.878 238.897 207.809 258.706 220.243 275.588C224.47 280.981 231.188 282.99 236.497 287.075C247.177 295.695 253.878 308.066 264.659 316.635C293.223 342.32 341.724 347.685 369.788 318.471C391.489 297.313 387.98 265.66 384.163 238.686C381.597 220.552 385.247 256.884 383.178 238.686Z" fill="white"/>
<path fill-rule="evenodd" clip-rule="evenodd" d="M295.826 123.103C303.519 121.549 311.419 120.583 319.275 120.874L319.88 120.897C325.791 121.134 333.277 121.657 338.433 125.096C338.73 124.798 339.207 124.645 339.64 124.852C345.767 127.779 352.507 129.895 358.959 131.998C365.381 134.09 372.044 135.472 378.775 136.028C381.308 136.238 383.475 138.974 381.872 141.429C381.49 142.014 381.119 142.605 380.749 143.197C381.368 143.132 381.987 143.066 382.606 143.003C384.642 142.798 386.677 144.973 386.556 146.958C386.481 148.206 386.346 149.439 386.147 150.658C386.923 150.641 387.694 150.758 388.439 151.073C392.212 152.667 391.95 157.164 391.667 160.586C391.276 165.334 389.501 170.363 386.207 173.917C388.667 176.474 390.408 179.527 391.447 183.154C392.201 185.802 392.62 188.623 392.413 191.38L392.347 192.205C392.091 195.197 391.582 198.509 389.431 200.661C388.328 201.77 386.967 202.175 385.671 202.046C386.455 208.941 386.958 215.874 387.431 222.783L387.653 226.086C388.708 242.054 389.501 258.126 389.294 274.12C389.101 289.068 386.149 303.576 376.988 315.713C368.644 326.764 356.664 334.911 343.112 338.008C335.808 339.68 328.352 339.798 320.96 338.733C317.377 338.215 313.77 337.421 310.369 336.169C306.604 334.778 303.899 332.731 301.366 329.664C300.168 328.209 300.744 325.112 303.13 325.403C306.738 325.841 310.032 326.369 313.491 327.436L313.986 327.593C317.431 328.697 320.999 329.521 324.601 329.871C331.979 330.586 339.47 329.866 346.537 327.627C358.044 323.978 367.955 315.846 374.307 305.628C381.847 293.516 382.7 279.767 382.591 265.84C382.474 250.558 381.977 235.268 381.167 220.002L381.029 217.457C380.6 209.602 380.186 201.741 379.822 193.88C379.708 191.414 379.536 188.929 379.225 186.468C376.382 184.801 373.834 182.503 372.173 179.667C368.837 181.048 365.328 182.044 362.1 182.838C354.622 184.679 346.858 185.125 339.246 183.973C337.193 184.822 335.099 185.568 332.973 186.21C332.399 186.465 331.824 186.715 331.25 186.961C326.124 189.155 320.925 191.015 315.514 192.376L314.185 192.707C311.338 193.41 308.245 194.102 305.215 194.319C304.717 194.511 304.18 194.674 303.593 194.817C300.833 195.488 297.97 195.7 295.141 195.463C292.386 195.231 290.395 192.445 291.913 189.836C293.022 187.932 294.141 186.034 295.27 184.14C291.342 185.777 287.286 187.139 283.196 188.292C279.066 189.456 274.877 190.438 270.683 191.34C268.44 191.819 266.189 192.243 263.951 192.721C262.35 193.061 259.89 193.239 258.584 194.294C257.141 195.453 256.731 198.155 256.184 199.822C255.464 201.987 254.789 204.162 254.173 206.362C252.947 210.751 251.941 215.204 251.163 219.701C250.384 224.204 249.861 228.751 249.57 233.312C249.28 237.869 249.408 242.455 248.94 246.992C248.688 249.399 246.106 250.637 244.199 248.955C243.975 248.758 243.75 248.558 243.527 248.357L243.194 248.052C241.562 246.573 239.98 245.005 238.675 243.239C238.438 242.914 238.212 242.574 238 242.228C237.965 242.228 237.936 242.219 237.901 242.194L237.539 241.921C233.553 238.953 226.895 235.082 223.008 240.014C221.77 241.585 221.136 243.586 220.609 245.516L219.686 248.97C219.089 251.225 218.527 253.493 218.198 255.8C217.454 260.968 217.828 266.925 221.382 271.068C222.801 272.725 224.758 273.908 226.94 274.219C228.158 274.387 229.361 274.18 230.568 274.027C231.795 273.874 232.977 274.12 234.205 274.002C236.156 273.81 237.009 276.147 236.28 277.617C235.885 278.406 235.422 279.086 234.895 279.663C235.318 280.028 235.723 280.423 236.112 280.837C237.265 281.207 238.3 282.001 239.074 283.051C239.7 283.9 240.025 284.822 240.079 285.793C240.148 286.035 240.207 286.282 240.262 286.533L241.319 288.25C241.551 288.627 241.783 288.999 242.016 289.364C244.706 293.605 247.693 297.195 251.404 300.578C254.977 303.833 258.855 306.747 262.212 310.239L262.607 310.653C265.736 313.953 269.035 317.947 267.81 322.745C267.495 323.978 265.774 324.866 264.651 324.032C261.039 321.349 259.22 317.099 256.155 313.844C253 310.49 249.506 307.477 246.343 304.134C243.351 300.977 240.991 297.402 239.212 293.467C238.502 294.251 237.467 294.808 236.033 295.025C233.569 295.395 231.272 293.95 230.198 291.815C229.508 292.12 228.804 292.397 228.094 292.614C224.358 293.758 222.008 289.6 223.417 286.528C224.171 284.881 225.112 283.451 226.281 282.248C222.628 281.745 218.912 279.856 216.512 277.499C210.491 271.576 209.663 262.674 211.018 254.759C211.738 250.563 212.979 246.317 214.591 242.376C214.871 241.691 215.172 241 215.502 240.32C215.32 240.315 215.133 240.236 215.014 240.083C213.925 238.594 212.6 237.376 211.791 235.709C211.047 234.18 210.22 232.632 209.633 231.039C208.426 227.779 207.834 224.1 207.44 220.653C206.627 213.596 206.942 206.583 208.022 199.571C209.859 187.627 214.299 176.196 220.839 166.167C220.483 165.98 220.142 165.753 219.823 165.486L219.666 165.349L219.411 165.118C217.545 163.428 217.706 160.261 219.411 158.549L219.95 158.009C220.632 157.331 221.22 156.794 222.321 156.056C222.484 155.947 222.65 155.844 222.818 155.748C222.241 154.682 222.041 153.436 222.443 152.06C223.843 147.269 230.732 147.438 235.099 149.528C239.93 145.213 245.287 141.468 251.093 138.435C264.922 131.215 280.559 126.18 295.826 123.103ZM224.344 249.3C226.926 248.457 230.356 250.227 232.678 251.292C235.62 252.644 238.123 254.641 240.548 256.752C241.755 257.807 241.971 259.533 241.671 261.008C241.641 261.155 241.612 261.308 241.577 261.461C241.257 263.034 239.502 264.272 237.95 264.228C234.702 264.139 233.156 261.333 231.317 258.956C231.101 259.341 230.829 259.696 230.494 259.962L230.267 260.14C229.504 260.721 228.663 261.186 227.655 261.141C226.941 261.106 226.256 260.924 225.625 260.593C224.048 259.76 223.353 257.718 223.782 256.056C224.048 255.011 224.659 254.192 225.457 253.625L225.16 253.421C224.523 252.978 223.942 252.51 223.49 251.821L223.387 251.657H223.427C222.934 250.809 223.255 249.655 224.344 249.3Z" fill="black"/>
<path fill-rule="evenodd" clip-rule="evenodd" d="M333.924 299.306C330.611 297.954 327.656 295.698 325.494 292.816C324.743 291.815 324.548 290.757 324.706 289.789C324.883 288.701 325.526 287.715 326.404 287.054C327.284 286.39 328.384 286.063 329.448 286.23C330.373 286.375 331.294 286.881 332.022 287.932L332.174 288.142C333.459 289.881 335.133 291.309 337.041 292.228C338.879 293.115 340.936 293.529 343.064 293.288C347.116 292.83 349.91 290.637 352.879 287.658C353.247 287.282 353.615 286.894 353.985 286.5C354.219 286.143 354.543 285.913 354.903 285.793C355.303 285.659 355.755 285.667 356.17 285.811C356.569 285.951 356.926 286.215 357.166 286.567C357.393 286.902 357.522 287.315 357.481 287.79C357.209 290.877 355.596 293.632 353.305 295.795C350.761 298.197 347.389 299.859 344.214 300.442C340.716 301.084 337.152 300.624 333.924 299.306V299.306ZM345.864 251.688C349.585 253.952 355.256 259.23 351.252 264.842C346.54 269.79 339.755 264.116 336.412 261.55C333.312 259.562 329.828 264.676 332.705 266.998C356.864 284.897 366.669 252.28 347.746 249.027C345.663 248.668 344.889 250.988 345.864 251.688ZM302.57 230.867C302.981 225.76 310.754 224.6 311.527 229.654C312.22 234.181 311.404 238.34 309.367 242.415C307.42 246.309 302.526 244.493 302.156 240.947C301.659 236.194 302.314 234.044 302.57 230.867ZM361.739 228.606C362.823 227.185 364.387 226.216 366.262 226.764C372.119 228.477 370.393 236.797 368.336 240.848C367.218 243.047 363.605 243.605 361.972 241.668C359.311 238.51 358.037 232.203 361.42 229.092C361.512 228.932 361.614 228.769 361.739 228.606ZM309.284 208.519L310.209 208.357C313.072 207.862 316.63 207.386 318.655 209.689C319.729 210.91 320.098 213.179 318.655 214.348C316.116 216.404 313.309 215.607 310.266 215.781C307.759 215.925 305.349 216.341 302.934 217.032C297.635 218.547 293.317 221.314 288.792 224.351C288.198 224.75 287.592 223.99 287.875 223.434C290.488 218.314 295.55 214.108 300.621 211.544C303.328 210.175 306.29 209.04 309.284 208.519ZM356.4 206.226L357.108 206.371C364.814 207.982 374.826 211.202 378.476 218.777C378.615 219.848 378.468 220.078 378.348 220.228L378.308 220.277C378.21 220.406 378.131 220.582 377.668 220.728C377.539 220.697 377.409 220.665 377.277 220.63C375.605 220.191 374.281 219.587 373 218.96L371.611 218.275C369.999 217.484 368.373 216.722 366.65 216.16C362.972 214.959 359.19 214.114 355.348 213.662C354.516 213.565 353.714 213.283 353.082 212.802C352.481 212.344 352.023 211.711 351.814 210.869C351.543 209.78 351.621 208.955 352.205 207.972C352.644 207.234 353.272 206.722 353.994 206.429C354.73 206.129 355.567 206.059 356.4 206.226Z" fill="black"/>
</svg>
